<svg id="Layer_1" data-name="Layer 1" xmlns="http://www.w3.org/2000/svg" viewBox="0 0 30 30"><defs><style>.cls-1{fill:#108f9e;}</style></defs><title>admin</title><path class="cls-1" d="M10.73,9.3A5,5,0,1,0,2,6,5,5,0,0,0,3.27,9.3C1.24,11,.32,13.13,0,17c0,1.68,0,3.57,2.17,3.94L3,25.24C3.6,27.53,5.16,29,7,29s3.4-1.47,4-3.8l.85-4.26c2.17-.37,2.17-2.27,2.17-4C13.68,13.12,12.76,11,10.73,9.3ZM7,3A3,3,0,1,1,4,6,3,3,0,0,1,7,3Zm4,16a1,1,0,0,0-1,.8l-1,5C8.69,26.12,7.89,27,7,27s-1.69-.88-2-2.2l-1-5A1,1,0,0,0,3,19c-1,0-1,0-1-1.92.31-3.76,1.2-5.16,2.62-6.3a.77.77,0,0,0,.18-.18l.07-.09a4.29,4.29,0,0,0,.63.23L6.33,12,5,15.33,7,18l2-2.67L7.67,12l.83-1.26a4.29,4.29,0,0,0,.63-.23l.07.09a.77.77,0,0,0,.18.18C10.8,11.92,11.69,13.32,12,17,12,19,12,19,11,19Z"/><path class="cls-1" d="M22,16a.5.5,0,0,0,.13,0,4,4,0,1,0,0-1.94A.5.5,0,0,0,22,14H20V6h2a.5.5,0,0,0,.13,0,4,4,0,1,0,0-1.94A.5.5,0,0,0,22,4H19a1,1,0,0,0-1,1v9H16a1,1,0,0,0,0,2h2v9a1,1,0,0,0,1,1h3a.5.5,0,0,0,.13,0,4,4,0,1,0,0-1.94A.5.5,0,0,0,22,24H20V16Zm4-3a2,2,0,1,1-2,2A2,2,0,0,1,26,13ZM26,3a2,2,0,1,1-2,2A2,2,0,0,1,26,3Zm0,20a2,2,0,1,1-2,2A2,2,0,0,1,26,23Z"/></svg>