<svg id="Layer_1" data-name="Layer 1" xmlns="http://www.w3.org/2000/svg" xmlns:xlink="http://www.w3.org/1999/xlink" viewBox="0 0 113.95 31"><defs><style>.cls-1{fill:url(#radial-gradient);}.cls-2{fill:#fff;}.cls-3{fill:url(#radial-gradient-2);}.cls-4{fill:url(#radial-gradient-3);}.cls-5{fill:url(#radial-gradient-4);}.cls-6{fill:url(#radial-gradient-5);}.cls-7{fill:url(#radial-gradient-6);}.cls-8{fill:url(#radial-gradient-7);}</style><radialGradient id="radial-gradient" cx="64" cy="15" r="35.16" gradientTransform="translate(-18.67) scale(1.17 1)" gradientUnits="userSpaceOnUse"><stop offset="0" stop-color="#f9f900"/><stop offset="0.59" stop-color="#549413"/></radialGradient><radialGradient id="radial-gradient-2" cx="6.38" cy="31.65" r="8.74" gradientTransform="matrix(0.23, 3.7, -3.7, 0.23, 220.86, -17.4)" gradientUnits="userSpaceOnUse"><stop offset="0" stop-color="#f9f900"/><stop offset="0.59" stop-color="#549413"/><stop offset="1" stop-color="#043100"/></radialGradient><radialGradient id="radial-gradient-3" cx="6.92" cy="33.15" r="7" gradientTransform="matrix(0.26, 3.69, -3.69, 0.26, 220.67, -18.1)" xlink:href="#radial-gradient-2"/><radialGradient id="radial-gradient-4" cx="7.36" cy="35.28" r="7.65" gradientTransform="matrix(0.2, 3.7, -3.7, 0.2, 221.18, -16.21)" xlink:href="#radial-gradient-2"/><radialGradient id="radial-gradient-5" cx="8.09" cy="35.6" r="4" gradientTransform="translate(73.36 -108.75) scale(3.7)" xlink:href="#radial-gradient-2"/><radialGradient id="radial-gradient-6" cx="5.49" cy="32.22" r="2.67" gradientTransform="translate(73.36 -108.75) scale(3.7)" xlink:href="#radial-gradient-2"/><radialGradient id="radial-gradient-7" cx="5.85" cy="32.66" r="6.89" gradientTransform="translate(73.36 -108.75) scale(3.7)" xlink:href="#radial-gradient-2"/></defs><title>Approved-long-01-01</title><rect class="cls-1" y="2" width="112" height="26" rx="12" ry="12"/><rect class="cls-2" x="1.17" y="3" width="105.72" height="24" rx="12" ry="12"/><circle class="cls-3" cx="98.45" cy="15.5" r="15.5" transform="translate(76.76 112.77) rotate(-86.38)"/><circle class="cls-4" cx="98.45" cy="15.5" r="15.16" transform="matrix(0.07, -1, 1, 0.07, 76.2, 112.65)"/><circle class="cls-5" cx="98.45" cy="15.5" r="12.92" transform="translate(77.7 112.98) rotate(-86.93)"/><circle class="cls-2" cx="98.45" cy="15.5" r="12.4" transform="translate(80.62 113.55) rotate(-88.64)"/><polygon class="cls-6" points="96.03 20.45 95.6 18.93 102.6 10.17 105.94 7.97 96.03 20.45"/><polygon class="cls-7" points="90.45 15.95 91.75 15.79 95.6 18.93 96.03 20.45 90.45 15.95"/><polygon class="cls-8" points="105.94 7.97 108.7 10.66 96.59 26.2 87.49 19.35 90.45 15.95 96.03 20.45 105.94 7.97"/></svg>