<svg xmlns="http://www.w3.org/2000/svg" xmlns:xlink="http://www.w3.org/1999/xlink" viewBox="0 0 31 31"><defs><style>.cls-1{isolation:isolate;}.cls-2{fill:url(#radial-gradient);}.cls-3{fill:url(#radial-gradient-2);}.cls-10,.cls-4{mix-blend-mode:screen;}.cls-4{fill:url(#radial-gradient-3);}.cls-5{fill:url(#radial-gradient-4);}.cls-6{fill:#fff;}.cls-7{fill:url(#radial-gradient-5);}.cls-8{fill:url(#radial-gradient-6);}.cls-9{fill:url(#radial-gradient-7);}.cls-11{fill:url(#radial-gradient-8);}.cls-12{fill:url(#radial-gradient-9);}</style><radialGradient id="radial-gradient" cx="-76.62" cy="31.65" r="8.74" gradientTransform="matrix(0.23, 3.7, -3.7, 0.23, 157.3, 289.39)" gradientUnits="userSpaceOnUse"><stop offset="0" stop-color="#f9f900"/><stop offset="0.59" stop-color="#549413"/><stop offset="1" stop-color="#043100"/></radialGradient><radialGradient id="radial-gradient-2" cx="-76.08" cy="33.15" r="7" gradientTransform="matrix(0.26, 3.69, -3.69, 0.26, 158.87, 288.58)" xlink:href="#radial-gradient"/><radialGradient id="radial-gradient-3" cx="-76.18" cy="33.06" r="5.32" gradientTransform="translate(297.76 -60.72) scale(3.7 2.25)" gradientUnits="userSpaceOnUse"><stop offset="0" stop-color="#fff"/><stop offset="1"/></radialGradient><radialGradient id="radial-gradient-4" cx="-75.64" cy="35.28" r="7.65" gradientTransform="matrix(0.2, 3.7, -3.7, 0.2, 154.63, 290.76)" xlink:href="#radial-gradient"/><radialGradient id="radial-gradient-5" cx="-74.91" cy="35.6" r="4" gradientTransform="translate(297.76 -108.75) scale(3.7)" xlink:href="#radial-gradient"/><radialGradient id="radial-gradient-6" cx="-77.51" cy="32.22" r="2.67" gradientTransform="translate(297.76 -108.75) scale(3.7)" xlink:href="#radial-gradient"/><radialGradient id="radial-gradient-7" cx="-77.15" cy="32.66" r="6.89" gradientTransform="translate(297.76 -108.75) scale(3.7)" xlink:href="#radial-gradient"/><radialGradient id="radial-gradient-8" cx="-76.72" cy="35.57" r="5.5" gradientTransform="translate(297.76 -108.75) scale(3.7)" gradientUnits="userSpaceOnUse"><stop offset="0" stop-color="#fff"/><stop offset="0.01" stop-color="#f6f6f6"/><stop offset="0.05" stop-color="#c8c8c8"/><stop offset="0.09" stop-color="#9d9d9d"/><stop offset="0.14" stop-color="#777"/><stop offset="0.2" stop-color="#575757"/><stop offset="0.25" stop-color="#3b3b3b"/><stop offset="0.32" stop-color="#252525"/><stop offset="0.4" stop-color="#141414"/><stop offset="0.49" stop-color="#090909"/><stop offset="0.63" stop-color="#020202"/><stop offset="1"/></radialGradient><radialGradient id="radial-gradient-9" cx="-76.72" cy="35.57" r="5.5" xlink:href="#radial-gradient-8"/></defs><title>Approved</title><g class="cls-1"><g id="Layer_1" data-name="Layer 1"><circle class="cls-2" cx="15.45" cy="15.5" r="15.5" transform="translate(-1 29.94) rotate(-86.38)"/><circle class="cls-3" cx="15.45" cy="15.5" r="15.16" transform="matrix(0.07, -1, 1, 0.07, -1.08, 29.84)"/><path class="cls-4" d="M15.45,11.19A30.52,30.52,0,0,1,30.59,15,15.15,15.15,0,0,0,.31,15,30.52,30.52,0,0,1,15.45,11.19Z"/><circle class="cls-5" cx="15.45" cy="15.5" r="12.92" transform="translate(-0.86 30.1) rotate(-86.93)"/><circle class="cls-6" cx="15.45" cy="15.5" r="12.4" transform="translate(-0.41 30.58) rotate(-88.64)"/><polygon class="cls-7" points="13.03 20.45 12.6 18.93 19.6 10.17 22.94 7.97 13.03 20.45"/><polygon class="cls-8" points="7.45 15.95 8.76 15.79 12.6 18.93 13.03 20.45 7.45 15.95"/><polygon class="cls-9" points="22.94 7.97 25.7 10.66 13.6 26.2 4.49 19.35 7.45 15.95 13.03 20.45 22.94 7.97"/><g class="cls-10"><path class="cls-11" d="M22.08,15.31l3.62-4.65L22.94,8l-7.8,9.81A49.3,49.3,0,0,1,22.08,15.31Z"/><path class="cls-12" d="M4.49,19.35l3.22,2.42c1-.66,2.41-1.48,4.05-2.34L7.45,16Z"/></g></g></g></svg>