<svg id="Layer_1" data-name="Layer 1" xmlns="http://www.w3.org/2000/svg" viewBox="0 0 50 35">
  <defs>
    <style>
      .cls-1 {
        fill: #878784;
        fill-rule: evenodd;
      }
    </style>
  </defs>
  <title>organizatsya-snimka</title>
  <g>
    <path class="cls-1" d="M32.41,8.17c0,4.09-3.31,8.32-7.39,8.32s-7.39-4.23-7.39-8.32a7.39,7.39,0,0,1,14.78,0Z"/>
    <path class="cls-1" d="M35.47,35a2.46,2.46,0,0,0,2.46-2.46v-1.7c0-5.28-3.81-13.08-12.91-13.08-8.75,0-12.91,7.51-12.91,12.85v1.93A2.46,2.46,0,0,0,14.57,35Z"/>
    <path class="cls-1" d="M14.82,10.66c0,3-2.41,6.32-5.39,6.32S4,13.64,4,10.66a5.4,5.4,0,1,1,10.79,0Z"/>
    <path class="cls-1" d="M15.65,20a9.61,9.61,0,0,0-6.22-2.31A9.43,9.43,0,0,0,0,26.21H0a4,4,0,0,0,4,4h6.88A13,13,0,0,1,15.65,20Z"/>
    <path class="cls-1" d="M35.18,10.66c0,3,2.42,6.32,5.4,6.32S46,13.64,46,10.66a5.4,5.4,0,1,0-10.79,0Z"/>
    <path class="cls-1" d="M34.35,20a9.64,9.64,0,0,1,6.23-2.31A9.42,9.42,0,0,1,50,26.21h0a4,4,0,0,1-4,4H39.08A13,13,0,0,0,34.35,20Z"/>
  </g>
</svg>
