<svg id="Layer_1" data-name="Layer 1" xmlns="http://www.w3.org/2000/svg" viewBox="0 0 714.9 214.02">
  <defs>
    <style>
      .cls-1 {
        fill: #00539f;
      }

      .cls-1, .cls-2 {
        fill-rule: evenodd;
      }

      .cls-2 {
        fill: #f9e127;
      }

      .cls-3 {
        fill: #231f20;
      }
    </style>
  </defs>
  <title>EU2</title>
  <polygon class="cls-1" points="-0.04 -0.22 322.01 -0.22 322.01 214.48 -0.04 214.48 -0.04 -0.22 -0.04 -0.22"/>
  <polygon class="cls-2" points="154.13 46.56 160.92 41.6 167.72 46.56 165.13 38.54 172.03 33.58 163.53 33.58 160.92 25.46 158.32 33.59 149.81 33.58 156.71 38.54 154.13 46.56 154.13 46.56"/>
  <polygon class="cls-2" points="118.96 56.01 125.75 51.05 132.55 56.01 129.96 47.99 136.86 43.03 128.35 43.03 125.75 34.9 123.14 43.04 114.64 43.03 121.54 47.99 118.96 56.01 118.96 56.01"/>
  <polygon class="cls-2" points="100.02 60.7 97.42 68.83 88.91 68.82 95.81 73.78 93.22 81.8 100.02 76.84 106.82 81.8 104.23 73.78 111.13 68.82 102.63 68.82 100.02 60.7 100.02 60.7"/>
  <polygon class="cls-2" points="90.58 111.97 97.37 116.93 94.79 108.91 101.69 103.95 93.18 103.95 90.58 95.82 87.98 103.96 79.47 103.95 86.37 108.91 83.78 116.93 90.58 111.97 90.58 111.97"/>
  <polygon class="cls-2" points="102.62 139.18 100.02 131.05 97.42 139.19 88.91 139.18 95.81 144.14 93.22 152.16 100.02 147.19 106.82 152.16 104.23 144.14 111.13 139.18 102.62 139.18 102.62 139.18"/>
  <polygon class="cls-2" points="128.41 164.96 125.8 156.84 123.2 164.97 114.69 164.96 121.59 169.92 119.01 177.94 125.81 172.98 132.6 177.94 130.02 169.92 136.92 164.96 128.41 164.96 128.41 164.96"/>
  <polygon class="cls-2" points="163.53 174.3 160.93 166.18 158.33 174.31 149.82 174.3 156.72 179.26 154.13 187.28 160.93 182.32 167.72 187.28 165.14 179.26 172.04 174.3 163.53 174.3 163.53 174.3"/>
  <polygon class="cls-2" points="198.66 164.96 196.06 156.84 193.45 164.97 184.95 164.96 191.84 169.92 189.26 177.94 196.06 172.98 202.85 177.94 200.26 169.92 207.16 164.96 198.66 164.96 198.66 164.96"/>
  <polygon class="cls-2" points="224.45 139.18 221.84 131.05 219.23 139.19 210.73 139.18 217.63 144.14 215.04 152.16 221.84 147.19 228.64 152.16 226.04 144.14 232.95 139.18 224.45 139.18 224.45 139.18"/>
  <polygon class="cls-2" points="242.29 103.85 233.78 103.85 231.17 95.72 228.57 103.86 220.06 103.85 226.97 108.81 224.38 116.83 231.17 111.86 237.97 116.83 235.39 108.81 242.29 103.85 242.29 103.85"/>
  <polygon class="cls-2" points="215.04 81.69 221.84 76.74 228.64 81.69 226.04 73.67 232.95 68.72 224.45 68.72 221.84 60.6 219.23 68.73 210.73 68.72 217.63 73.67 215.04 81.69 215.04 81.69"/>
  <polygon class="cls-2" points="196.16 34.91 193.56 43.05 185.05 43.03 191.94 48 189.36 56.02 196.16 51.05 202.95 56.02 200.37 48 207.27 43.03 198.75 43.03 196.16 34.91 196.16 34.91"/>
  <g>
    <path class="cls-3" d="M365.29,59.78H354.81v9.71h11.68v2.92H351.33V45.46h14.56v2.92H354.81V56.9h10.48Z"/>
    <path class="cls-3" d="M371,45.82a33.72,33.72,0,0,1,6.36-.56c3.48,0,5.72.6,7.4,2A5.65,5.65,0,0,1,387,52a6.4,6.4,0,0,1-4.56,5.92V58A7,7,0,0,1,388,64.74a7.27,7.27,0,0,1-2.28,5.4c-1.88,1.72-4.92,2.52-9.32,2.52a40.3,40.3,0,0,1-5.4-.33Zm3.48,11h3.16c3.68,0,5.84-1.92,5.84-4.52,0-3.16-2.4-4.4-5.92-4.4a14.93,14.93,0,0,0-3.08.24Zm0,12.92a18.6,18.6,0,0,0,2.92.16c3.6,0,6.92-1.32,6.92-5.24,0-3.68-3.16-5.2-7-5.2h-2.88Z"/>
    <path class="cls-3" d="M392.69,45.78a40.33,40.33,0,0,1,6.68-.52c3.44,0,6,.8,7.56,2.24a7.25,7.25,0,0,1,2.36,5.64,7.94,7.94,0,0,1-2.08,5.76c-1.84,2-4.84,3-8.24,3a12,12,0,0,1-2.8-.24V72.41h-3.48Zm3.48,13a11.67,11.67,0,0,0,2.88.28c4.2,0,6.76-2,6.76-5.76,0-3.56-2.52-5.28-6.36-5.28a14.6,14.6,0,0,0-3.28.28Z"/>
    <path class="cls-3" d="M436.68,58.66c0,9.28-5.63,14.19-12.51,14.19-7.12,0-12.12-5.51-12.12-13.67,0-8.56,5.32-14.16,12.52-14.16C431.93,45,436.68,50.66,436.68,58.66Zm-20.91.44c0,5.76,3.12,10.92,8.6,10.92S433,64.94,433,58.82c0-5.36-2.8-11-8.6-11S415.77,53.18,415.77,59.1Z"/>
    <path class="cls-3" d="M460.68,45.46V72.41h-3.47v-24H444.69v24h-3.48V45.46Z"/>
    <path class="cls-3" d="M480.73,59.78H470.25v9.71h11.68v2.92H466.77V45.46h14.56v2.92H470.25V56.9h10.48Z"/>
    <path class="cls-3" d="M489.73,45.46V56.82c0,4.28-.08,7.8-.32,11.4l.08,0c1.36-2.8,3-5.72,5-8.92l8.72-13.88h3.47V72.41h-3.27V60.94c0-4.36,0-7.56.31-11l-.12,0a80.42,80.42,0,0,1-5,9.08l-8.44,13.39h-3.72V45.46Zm4.4-5.64c.16,1.24.56,2.48,2.44,2.48s2.28-1.16,2.44-2.48h2.68c-.2,2.64-1.8,4.28-5.2,4.28s-4.84-1.64-5-4.28Z"/>
    <path class="cls-3" d="M531.6,71.54a17.44,17.44,0,0,1-7.12,1.28c-7.59,0-13.31-4.8-13.31-13.64,0-8.44,5.72-14.16,14.07-14.16a14.45,14.45,0,0,1,6.4,1.2l-.84,2.84a12.68,12.68,0,0,0-5.44-1.12c-6.31,0-10.51,4-10.51,11.12,0,6.6,3.8,10.84,10.35,10.84a14.1,14.1,0,0,0,5.68-1.12Z"/>
    <path class="cls-3" d="M539.4,45.46v12h1.08l9.24-12h4.2l-10.2,12.36c4.44.6,6.16,3.32,7.56,7a69.72,69.72,0,0,0,3,7.63h-3.76A47.06,47.06,0,0,1,548,66.06c-1.24-3.56-3-6-7.52-6H539.4V72.41H536V45.46Z"/>
    <path class="cls-3" d="M560.93,45.46V56.82c0,4.28-.09,7.8-.33,11.4l.08,0c1.36-2.8,3-5.72,5-8.92l8.72-13.88h3.48V72.41H574.6V60.94c0-4.36,0-7.56.32-11l-.12,0a82.15,82.15,0,0,1-5,9.08l-8.44,13.39h-3.72V45.46Z"/>
    <path class="cls-3" d="M611.28,71.54a17.44,17.44,0,0,1-7.12,1.28c-7.6,0-13.32-4.8-13.32-13.64,0-8.44,5.72-14.16,14.08-14.16a14.45,14.45,0,0,1,6.4,1.2l-.84,2.84A12.68,12.68,0,0,0,605,47.94c-6.32,0-10.52,4-10.52,11.12,0,6.6,3.8,10.84,10.36,10.84a14.1,14.1,0,0,0,5.68-1.12Z"/>
    <path class="cls-3" d="M624.32,45.46V55.54a26.05,26.05,0,0,1,3.24-.2c5.2,0,10.12,2.52,10.12,8.4a8,8,0,0,1-2.08,5.75c-2.24,2.37-5.8,3.17-9.4,3.17a40.09,40.09,0,0,1-5.36-.33v-24h-6.92V45.46Zm0,24.28a13.67,13.67,0,0,0,2.76.2c3.88,0,6.92-2,6.92-6s-3.36-5.8-6.88-5.8a21,21,0,0,0-2.8.2Z"/>
    <path class="cls-3" d="M645.64,45.46V57.1h4c.72-7.52,5.12-12.08,11.48-12.08,7,0,11.24,5.64,11.24,13.64,0,9.36-5.2,14.19-11.6,14.19S649.84,67.9,649.56,60h-3.92V72.41h-3.48V45.46ZM668.8,58.82c0-5.36-2.52-11-7.84-11s-8,5.44-8,11.28c0,5.68,2.84,11,7.88,11S668.8,64.94,668.8,58.82Z"/>
    <path class="cls-3" d="M675.24,47.06a12.81,12.81,0,0,1,7.12-2c4.68,0,7.92,2.44,7.92,6.6a6.79,6.79,0,0,1-5.56,6.56v.08c3.8.4,6.56,2.88,6.56,6.76,0,5.6-4.84,7.83-9.76,7.83a13.84,13.84,0,0,1-7-1.75l.92-2.72a13.07,13.07,0,0,0,6,1.64c4,0,6.2-2.16,6.2-5.12,0-4-3.88-5.2-7.32-5.2h-1.6V57.06h1.6c3.56,0,6.32-2.2,6.32-5s-1.92-4.24-4.84-4.24a11,11,0,0,0-5.6,1.76Z"/>
    <path class="cls-3" d="M365.29,107.78H354.81v9.71h11.68v2.92H351.33V93.46h14.56v2.92H354.81v8.52h10.48Z"/>
    <path class="cls-3" d="M371,93.82a33.72,33.72,0,0,1,6.36-.56c3.48,0,5.72.6,7.4,2A5.65,5.65,0,0,1,387,100a6.4,6.4,0,0,1-4.56,5.92V106a7,7,0,0,1,5.56,6.76,7.28,7.28,0,0,1-2.28,5.4c-1.88,1.71-4.92,2.51-9.32,2.51a40.68,40.68,0,0,1-5.4-.32Zm3.48,11h3.16c3.68,0,5.84-1.92,5.84-4.52,0-3.16-2.4-4.4-5.92-4.4a14.93,14.93,0,0,0-3.08.24Zm0,12.91a18.6,18.6,0,0,0,2.92.16c3.6,0,6.92-1.32,6.92-5.23,0-3.68-3.16-5.2-7-5.2h-2.88Z"/>
    <path class="cls-3" d="M392.69,93.78a40.33,40.33,0,0,1,6.68-.52c3.44,0,6,.8,7.56,2.24a7.25,7.25,0,0,1,2.36,5.64,7.94,7.94,0,0,1-2.08,5.76c-1.84,2-4.84,3-8.24,3a12,12,0,0,1-2.8-.24v10.79h-3.48Zm3.48,13a11.67,11.67,0,0,0,2.88.28c4.2,0,6.76-2,6.76-5.76,0-3.56-2.52-5.28-6.36-5.28a14.6,14.6,0,0,0-3.28.28Z"/>
    <path class="cls-3" d="M436.68,106.66c0,9.27-5.63,14.19-12.51,14.19-7.12,0-12.12-5.51-12.12-13.67,0-8.56,5.32-14.16,12.52-14.16C431.93,93,436.68,98.66,436.68,106.66Zm-20.91.44c0,5.76,3.12,10.92,8.6,10.92s8.64-5.08,8.64-11.2c0-5.36-2.8-11-8.6-11S415.77,101.18,415.77,107.1Z"/>
    <path class="cls-3" d="M460.68,93.46v27h-3.47v-24H444.69v24h-3.48V93.46Z"/>
    <path class="cls-3" d="M480.73,107.78H470.25v9.71h11.68v2.92H466.77V93.46h14.56v2.92H470.25v8.52h10.48Z"/>
    <path class="cls-3" d="M489.73,93.46v11.36c0,4.28-.08,7.8-.32,11.4l.08,0c1.36-2.8,3-5.72,5-8.92l8.72-13.88h3.47v27h-3.27V108.94c0-4.36,0-7.56.31-11l-.12,0a80.42,80.42,0,0,1-5,9.08l-8.44,13.39h-3.72V93.46Zm4.4-5.64c.16,1.24.56,2.48,2.44,2.48s2.28-1.16,2.44-2.48h2.68c-.2,2.64-1.8,4.28-5.2,4.28s-4.84-1.64-5-4.28Z"/>
    <path class="cls-3" d="M531.6,119.53a17.27,17.27,0,0,1-7.12,1.28c-7.59,0-13.31-4.79-13.31-13.63,0-8.44,5.72-14.16,14.07-14.16a14.45,14.45,0,0,1,6.4,1.2l-.84,2.84a12.68,12.68,0,0,0-5.44-1.12c-6.31,0-10.51,4-10.51,11.12,0,6.6,3.8,10.83,10.35,10.83a13.93,13.93,0,0,0,5.68-1.12Z"/>
    <path class="cls-3" d="M539.4,93.46v12h1.08l9.24-12h4.2l-10.2,12.36c4.44.6,6.16,3.32,7.56,7a69.72,69.72,0,0,0,3,7.63h-3.76a47.58,47.58,0,0,1-2.44-6.35c-1.24-3.56-3-6-7.52-6H539.4v12.35H536V93.46Z"/>
    <path class="cls-3" d="M560.93,93.46v11.36c0,4.28-.09,7.8-.33,11.4l.08,0c1.36-2.8,3-5.72,5-8.92l8.72-13.88h3.48v27H574.6V108.94c0-4.36,0-7.56.32-11l-.12,0a82.15,82.15,0,0,1-5,9.08l-8.44,13.39h-3.72V93.46Z"/>
    <path class="cls-3" d="M370.17,167.53a17.27,17.27,0,0,1-7.12,1.28c-7.6,0-13.32-4.79-13.32-13.63,0-8.44,5.72-14.16,14.08-14.16a14.45,14.45,0,0,1,6.4,1.2l-.84,2.84a12.68,12.68,0,0,0-5.44-1.12c-6.32,0-10.52,4-10.52,11.12,0,6.6,3.8,10.83,10.36,10.83a13.93,13.93,0,0,0,5.68-1.12Z"/>
    <path class="cls-3" d="M396.76,154.66c0,9.27-5.63,14.19-12.51,14.19-7.12,0-12.12-5.51-12.12-13.67,0-8.56,5.32-14.16,12.52-14.16C392,141,396.76,146.66,396.76,154.66Zm-20.91.44c0,5.76,3.12,10.92,8.6,10.92s8.64-5.08,8.64-11.2c0-5.36-2.8-11-8.6-11S375.85,149.18,375.85,155.1Z"/>
    <path class="cls-3" d="M404.77,141.46v24h12.36v-24h3.52v24.11l2.36.08-.25,9.24H420l-.24-6.48H401.29V141.46Z"/>
    <path class="cls-3" d="M430.65,141.46v11.36c0,4.28-.08,7.8-.32,11.4l.08,0c1.36-2.8,3-5.72,5-8.92l8.72-13.88h3.48v26.95h-3.28V156.94c0-4.36,0-7.56.32-11l-.12,0a82.15,82.15,0,0,1-5,9.08l-8.44,13.39h-3.72V141.46Z"/>
    <path class="cls-3" d="M458.05,159.94l-2.8,8.47h-3.6l9.16-26.95H465l9.19,26.95h-3.71l-2.88-8.47Zm8.84-2.72-2.64-7.76c-.6-1.76-1-3.36-1.4-4.92h-.08c-.4,1.6-.84,3.24-1.36,4.88l-2.64,7.8Z"/>
    <path class="cls-3" d="M497.25,141.46v26.95h-3.52v-24h-8.92v8.16c0,5.84-.24,12.35-4,14.91a8.1,8.1,0,0,1-4.12,1.28l-.44-2.8a6.16,6.16,0,0,0,2.84-1.43c2.16-2.12,2.36-7.36,2.36-11.68V141.46Z"/>
    <path class="cls-3" d="M517.25,155.78H506.77v9.71h11.68v2.92H503.29V141.46h14.55v2.92H506.77v8.52h10.48Z"/>
    <path class="cls-3" d="M526.45,141.46v11.28h13V141.46H543v26.95h-3.52V155.78h-13v12.63H523V141.46Z"/>
    <path class="cls-3" d="M570.68,140.38v2.4c5.68.24,11.36,3.68,11.36,12.16s-5.68,11.71-11.4,12v2.52h-3.35V167c-5.64-.36-11.36-3.35-11.36-11.87,0-8.84,6.24-12,11.44-12.32v-2.4Zm-3.35,4.92c-3.52.2-7.8,2.64-7.8,9.64,0,6.44,3.84,9.16,7.8,9.56Zm3.31,19.2c3.88-.32,7.8-2.92,7.8-9.6,0-6.92-3.92-9.4-7.8-9.6Z"/>
    <path class="cls-3" d="M609.56,154.66c0,9.27-5.64,14.19-12.51,14.19-7.12,0-12.12-5.51-12.12-13.67,0-8.56,5.32-14.16,12.52-14.16S609.56,146.66,609.56,154.66Zm-20.91.44c0,5.76,3.12,10.92,8.6,10.92s8.63-5.08,8.63-11.2c0-5.36-2.8-11-8.59-11S588.65,149.18,588.65,155.1Z"/>
    <path class="cls-3" d="M617.57,141.46v11.28h13V141.46h3.52v26.95H630.6V155.78h-13v12.63h-3.48V141.46Z"/>
    <path class="cls-3" d="M658.6,141.46v24.11l2.36.08-.24,9.24H658l-.24-6.48h-17l-.24,6.48h-2.72l-.24-9.24,2-.08a31.61,31.61,0,0,0,2.64-5.91,40,40,0,0,0,1.28-11.36v-6.84Zm-11.83,8a36.88,36.88,0,0,1-1.36,11,25.93,25.93,0,0,1-2.2,5.11h11.91V144.34h-8.35Z"/>
  </g>
</svg>
