<svg id="Layer_1" data-name="Layer 1" xmlns="http://www.w3.org/2000/svg" viewBox="0 0 49.97 49.97">
  <defs>
    <style>
      .cls-1 {
        fill: #f4f49d;
      }

      .cls-2 {
        fill: #999;
      }

      .cls-3 {
        fill: #fff;
      }

      .cls-4 {
        fill: #373737;
      }

      .cls-5 {
        fill: #af3c99;
      }

      .cls-6 {
        fill: #0eddc4;
      }
    </style>
  </defs>
  <title>Grupa</title>
  <circle class="cls-1" cx="25.02" cy="24.98" r="24.98" transform="translate(-1.93 47.91) rotate(-85.4)"/>
  <g>
    <g>
      <path class="cls-2" d="M38.41,10.25H28.28V9.16A1.25,1.25,0,0,0,27,7.91H22.2A1.25,1.25,0,0,0,21,9.16V23.61a1.24,1.24,0,0,0,1.25,1.24H38.41a1.24,1.24,0,0,0,1.24-1.24V11.5A1.25,1.25,0,0,0,38.41,10.25Z" transform="translate(-0.03)"/>
      <rect class="cls-3" x="23" y="12.05" width="14.54" height="6.82"/>
      <g>
        <rect class="cls-4" x="23.88" y="12.88" width="12.78" height="0.42"/>
        <rect class="cls-4" x="23.88" y="13.96" width="12.78" height="0.42"/>
        <rect class="cls-4" x="23.88" y="15.04" width="12.78" height="0.42"/>
      </g>
      <path class="cls-2" d="M21,16.18v7.43a1.24,1.24,0,0,0,1.25,1.24H38.41a1.24,1.24,0,0,0,1.24-1.24V16.18Z" transform="translate(-0.03)"/>
    </g>
    <g>
      <path class="cls-5" d="M33.1,18.87H23v-1.1a1.25,1.25,0,0,0-1.25-1.24H16.9a1.25,1.25,0,0,0-1.25,1.24V32.23a1.25,1.25,0,0,0,1.25,1.24H33.1a1.25,1.25,0,0,0,1.25-1.24V20.12A1.25,1.25,0,0,0,33.1,18.87Z" transform="translate(-0.03)"/>
      <rect class="cls-3" x="17.7" y="20.67" width="14.54" height="6.82"/>
      <g>
        <rect class="cls-4" x="18.58" y="21.5" width="12.78" height="0.42"/>
        <rect class="cls-4" x="18.58" y="22.58" width="12.78" height="0.42"/>
        <rect class="cls-4" x="18.58" y="23.66" width="12.78" height="0.42"/>
      </g>
      <path class="cls-5" d="M15.65,24.8v7.43a1.25,1.25,0,0,0,1.25,1.24H33.1a1.25,1.25,0,0,0,1.25-1.24V24.8Z" transform="translate(-0.03)"/>
    </g>
    <g>
      <path class="cls-6" d="M27.8,27.49H17.67v-1.1a1.24,1.24,0,0,0-1.24-1.24H11.59a1.24,1.24,0,0,0-1.24,1.24V40.84a1.25,1.25,0,0,0,1.24,1.25H27.8a1.25,1.25,0,0,0,1.25-1.25V28.74A1.25,1.25,0,0,0,27.8,27.49Z" transform="translate(-0.03)"/>
      <rect class="cls-3" x="12.39" y="29.29" width="14.54" height="6.82"/>
      <g>
        <rect class="cls-4" x="13.27" y="30.12" width="12.78" height="0.42"/>
        <rect class="cls-4" x="13.27" y="31.2" width="12.78" height="0.42"/>
        <rect class="cls-4" x="13.27" y="32.28" width="12.78" height="0.42"/>
      </g>
      <path class="cls-6" d="M10.35,33.42v7.42a1.25,1.25,0,0,0,1.24,1.25H27.8a1.25,1.25,0,0,0,1.25-1.25V33.42Z" transform="translate(-0.03)"/>
    </g>
  </g>
</svg>
