<svg id="Layer_1" data-name="Layer 1" xmlns="http://www.w3.org/2000/svg" viewBox="0 0 50 50">
  <defs>
    <style>
      .cls-1 {
        fill: #fff;
      }
    </style>
  </defs>
  <title>HELP</title>
  <path class="cls-1" d="M25,2A23,23,0,1,1,2,25,23,23,0,0,1,25,2m0-2A25,25,0,1,0,50,25,25,25,0,0,0,25,0Z"/>
  <path class="cls-1" d="M21.77,33.39a15.63,15.63,0,0,1,.71-4.91,12.46,12.46,0,0,1,2.66-4L28.57,21a7.9,7.9,0,0,0,2.2-5.32,6,6,0,0,0-1.44-4.29A5.42,5.42,0,0,0,25.14,9.8a6.29,6.29,0,0,0-4.28,1.41A4.77,4.77,0,0,0,19.24,15H14.4a8.81,8.81,0,0,1,3-6.84,11.3,11.3,0,0,1,7.72-2.6c3.3,0,5.86.89,7.7,2.65a9.61,9.61,0,0,1,2.76,7.27q0,4.57-4.23,9l-2.85,2.82a8.73,8.73,0,0,0-1.91,6.08Zm-.21,8.3a2.88,2.88,0,0,1,.72-2,2.7,2.7,0,0,1,2.13-.8,2.76,2.76,0,0,1,2.15.8,2.89,2.89,0,0,1,.73,2,2.61,2.61,0,0,1-2.88,2.75,2.76,2.76,0,0,1-2.13-.78A2.8,2.8,0,0,1,21.56,41.69Z"/>
</svg>
