<svg id="Layer_1" data-name="Layer 1" xmlns="http://www.w3.org/2000/svg" viewBox="0 0 75.13 107.9">
  <defs>
    <style>
      .cls-1 {
        fill: #146b7f;
      }

      .cls-2 {
        fill: #13adb7;
      }

      .cls-3 {
        fill: #fc0;
        stroke: #fdc00f;
        stroke-width: 5px;
      }

      .cls-3, .cls-4 {
        stroke-linecap: round;
        stroke-linejoin: round;
      }

      .cls-4 {
        fill: #fdc00f;
        stroke: #f9b233;
        stroke-width: 3px;
      }

      .cls-5 {
        fill: #ffd633;
      }

      .cls-6 {
        fill: #fff;
      }
    </style>
  </defs>
  <title>medal</title>
  <g>
    <g>
      <polyline class="cls-1" points="19.09 91.31 25.12 107.9 43.4 57.68 22.08 49.92 3.8 100.14 19.09 91.31"/>
      <polyline class="cls-2" points="56.04 91.31 71.33 100.14 53.05 49.92 31.73 57.68 50.01 107.9 56.04 91.31"/>
    </g>
    <circle class="cls-3" cx="37.56" cy="37.56" r="35.06"/>
    <polygon class="cls-4" points="37.56 6.33 41.41 9.71 46.03 7.49 48.82 11.79 53.87 10.9 55.4 15.79 60.5 16.29 60.65 21.41 65.42 23.27 64.19 28.25 68.29 31.32 65.76 35.78 68.87 39.85 65.23 43.46 67.13 48.22 62.66 50.71 63.2 55.8 58.22 57 57.37 62.05 52.25 61.85 50.06 66.49 45.19 64.92 41.84 68.8 37.56 65.97 33.29 68.8 29.94 64.92 25.06 66.49 22.88 61.85 17.76 62.05 16.91 57 11.93 55.8 12.47 50.71 8 48.22 9.89 43.46 6.26 39.85 9.37 35.78 6.84 31.32 10.93 28.25 9.7 23.27 14.47 21.41 14.63 16.29 19.73 15.79 21.26 10.9 26.3 11.79 29.1 7.49 33.72 9.71 37.56 6.33"/>
    <path class="cls-5" d="M62,38.47A24.55,24.55,0,1,1,37.44,13.92,24.54,24.54,0,0,1,62,38.47Z" transform="translate(0.13 -0.9)"/>
  </g>
  <path class="cls-6" d="M30.13,49.91a2.11,2.11,0,0,0,1.52-.62,2.06,2.06,0,0,0,.62-1.49V29.36a2,2,0,0,0-1.05-1.8,2.29,2.29,0,0,0-1.09-.27h-.82V26.9H43.23l0,.39h-.78a2.07,2.07,0,0,0-1.87,1,2.38,2.38,0,0,0-.31,1.06V47.84a2,2,0,0,0,1.09,1.8,2.29,2.29,0,0,0,1.09.27h.78l0,.39H29.31v-.39Z" transform="translate(0.13 -0.9)"/>
</svg>
