<?xml version="1.0" encoding="utf-8"?>
<!-- Generator: Adobe Illustrator 19.0.0, SVG Export Plug-In . SVG Version: 6.00 Build 0)  -->
<svg version="1.1" id="Capa_1" xmlns="http://www.w3.org/2000/svg" xmlns:xlink="http://www.w3.org/1999/xlink" x="0px" y="0px"
	 viewBox="-149 272.9 297 297" style="enable-background:new -149 272.9 297 297;" xml:space="preserve">
<style type="text/css">
	.st0{fill:#C6A82A;}
</style>
<g>
	<path class="st0" d="M137.9,535.3c5.6,0,10.1-4.5,10.1-10.1V317.5c0-5.6-4.5-10.1-10.1-10.1h-242.3c-5.6,0-10.1,4.5-10.1,10.1v24.6
		h-24.5c-5.6,0-10.1,4.5-10.1,10.1v173.1c0,5.6,4.5,10.1,10.1,10.1L137.9,535.3L137.9,535.3z M-128.9,362.2h14.5v153h-14.5V362.2z
		 M127.9,515.2H-94.3V327.6h222.1V515.2z"/>
	<path class="st0" d="M16.8,466.1h86.5c5.6,0,10.1-4.5,10.1-10.1v-86.5c0-5.6-4.5-10.1-10.1-10.1H16.8c-5.6,0-10.1,4.5-10.1,10.1
		V456C6.7,461.6,11.2,466.1,16.8,466.1z M26.9,379.5h66.4v66.4H26.9L26.9,379.5L26.9,379.5z"/>
	<path class="st0" d="M-69.7,500.7h173c5.6,0,10.1-4.5,10.1-10.1s-4.5-10.1-10.1-10.1h-173c-5.6,0-10.1,4.5-10.1,10.1
		C-79.8,496.2-75.3,500.7-69.7,500.7z"/>
	<path class="st0" d="M-69.7,379.5h51.9c5.6,0,10.1-4.5,10.1-10.1c0-5.6-4.5-10.1-10.1-10.1h-51.9c-5.6,0-10.1,4.5-10.1,10.1
		C-79.8,375-75.3,379.5-69.7,379.5z"/>
	<path class="st0" d="M-69.7,414.1h51.9c5.6,0,10.1-4.5,10.1-10.1c0-5.6-4.5-10.1-10.1-10.1h-51.9c-5.6,0-10.1,4.5-10.1,10.1
		C-79.8,409.6-75.3,414.1-69.7,414.1z"/>
	<path class="st0" d="M-69.7,448.8h51.9c5.6,0,10.1-4.5,10.1-10.1s-4.5-10.1-10.1-10.1h-51.9c-5.6,0-10.1,4.5-10.1,10.1
		C-79.8,444.3-75.3,448.8-69.7,448.8z"/>
</g>
</svg>
