<svg id="Layer_1" data-name="Layer 1" xmlns="http://www.w3.org/2000/svg" viewBox="0 0 72 52"><defs><style>.cls-1{fill:#7de314;}.cls-2{fill:#5eaa0f;}.cls-3{fill:#01cc9b;}.cls-4{fill:#019974;}.cls-5{fill:#14a0c0;}.cls-6{fill:#0f7890;}.cls-7{fill:#5059ab;}.cls-8{fill:#3c4380;}</style></defs><title>ODP-LOGO</title><path class="cls-1" d="M26.27.31V20.15a11.59,11.59,0,0,1,11,8l4.46-1.45L56.1,22A30.87,30.87,0,0,0,26.27.31Z"/><path class="cls-2" d="M26.27,20.15v5.07a6.51,6.51,0,0,1,6.18,4.45l4.82-1.57A11.59,11.59,0,0,0,26.27,20.15Z"/><path class="cls-3" d="M0,23.14l15.27,5a11.59,11.59,0,0,1,11-8V4.1A27.65,27.65,0,0,0,0,23.14Z"/><path class="cls-4" d="M15.27,28.1l4.82,1.57a6.51,6.51,0,0,1,6.18-4.45V20.15A11.59,11.59,0,0,0,15.27,28.1Z"/><path class="cls-5" d="M2.42,31.74A23.8,23.8,0,0,0,12.22,51L14.45,48l5-6.86a11.62,11.62,0,0,1-4.16-13L3.6,24.31A23.69,23.69,0,0,0,2.42,31.74Z"/><path class="cls-6" d="M14.69,31.74a11.58,11.58,0,0,0,4.74,9.35h0l3-4.1a7.47,7.47,0,0,1-.75-.64,6.53,6.53,0,0,1-1.57-6.68L15.27,28.1A11.56,11.56,0,0,0,14.69,31.74Z"/><polygon class="cls-7" points="19.43 41.09 22.41 36.99 22.41 36.99 19.43 41.09"/><path class="cls-7" d="M33.11,41.05a11.61,11.61,0,0,1-13.68,0h0l-5,6.86a20.07,20.07,0,0,0,23.64,0l-2.23-3.07-2.75-3.79Z"/><path class="cls-8" d="M19.43,41.09a11.61,11.61,0,0,0,13.68,0l-3-4.1a6.51,6.51,0,0,1-7.72,0Z"/><path d="M39,35.29h-.74v-5.9H39v.26h0a2,2,0,0,1,3.14,1.75,2.07,2.07,0,0,1-2.14,2.15,2.39,2.39,0,0,1-1-.22h0Zm1-2.38a1.34,1.34,0,0,0,1.36-1.44A1.38,1.38,0,0,0,40.09,30a1.71,1.71,0,0,0-1.06.37v2.28A2.28,2.28,0,0,0,40.07,32.91Z"/><path d="M43.69,31.64a1.4,1.4,0,0,0,1.51,1.25,2.34,2.34,0,0,0,1.41-.51v.8a2.93,2.93,0,0,1-1.46.38,2.09,2.09,0,0,1-2.21-2.13,2,2,0,0,1,2-2.13,1.82,1.82,0,0,1,1.85,2,2.06,2.06,0,0,1,0,.37Zm0-.58h2.4A1.1,1.1,0,0,0,45,30,1.24,1.24,0,0,0,43.71,31.06Z"/><path d="M47.9,29.39h.74v.51h0a2,2,0,0,1,1.43-.61,1.39,1.39,0,0,1,1.08.44A1.65,1.65,0,0,1,51.51,31v2.52h-.74V31.09a1.29,1.29,0,0,0-.19-.83.87.87,0,0,0-.66-.27,1.73,1.73,0,0,0-1.28.68v2.8H47.9Z"/><path d="M56.72,29.3a2.49,2.49,0,0,1,1,.21h0V27.13h.75v6.34h-.75v-.25h0a2,2,0,0,1-1.15.35,2,2,0,0,1-2-2.06A2.1,2.1,0,0,1,56.72,29.3Zm-.07,3.6a1.87,1.87,0,0,0,1.06-.35V30.22a2.28,2.28,0,0,0-1-.26,1.39,1.39,0,0,0-1.4,1.49A1.33,1.33,0,0,0,56.65,32.9Z"/><path d="M59.93,33.27a1.08,1.08,0,0,1-.43-.9,1.13,1.13,0,0,1,.54-1,2.1,2.1,0,0,1,1.14-.27,3.34,3.34,0,0,1,.87.11v-.35a.88.88,0,0,0-.23-.67,1.13,1.13,0,0,0-.76-.22,2.1,2.1,0,0,0-1.25.41v-.73a2.51,2.51,0,0,1,1.36-.35,1.75,1.75,0,0,1,1.22.37,1.38,1.38,0,0,1,.41,1.07v1.73c0,.25.09.44.31.44a.57.57,0,0,0,.24-.06v.62a1.09,1.09,0,0,1-.39.07.87.87,0,0,1-.79-.43h0a1.9,1.9,0,0,1-1.25.45A1.61,1.61,0,0,1,59.93,33.27Zm2.12-.73v-.76a2.92,2.92,0,0,0-.8-.11c-.5,0-1,.15-1,.63s.34.6.78.6A1.7,1.7,0,0,0,62.05,32.54Z"/><path d="M64.5,32.05v-2h-.75v-.67h.75V28.28l.75-.13v1.24h1.22v.67H65.25v1.85c0,.51.07,1,.61,1a1.18,1.18,0,0,0,.61-.17v.7a1.81,1.81,0,0,1-.73.15,1.17,1.17,0,0,1-.93-.38A1.62,1.62,0,0,1,64.5,32.05Z"/><path d="M67.57,33.27a1.08,1.08,0,0,1-.43-.9,1.13,1.13,0,0,1,.54-1,2.12,2.12,0,0,1,1.14-.27,3.34,3.34,0,0,1,.87.11v-.35a.88.88,0,0,0-.23-.67,1.1,1.1,0,0,0-.75-.22,2.11,2.11,0,0,0-1.26.41v-.73a2.51,2.51,0,0,1,1.36-.35,1.75,1.75,0,0,1,1.22.37,1.38,1.38,0,0,1,.41,1.07v1.73c0,.25.09.44.32.44a.65.65,0,0,0,.24-.06v.62a1.1,1.1,0,0,1-.4.07.87.87,0,0,1-.79-.43h0a1.9,1.9,0,0,1-1.25.45A1.61,1.61,0,0,1,67.57,33.27Zm2.12-.73v-.76a2.9,2.9,0,0,0-.79-.11c-.51,0-1,.15-1,.63s.34.6.78.6A1.7,1.7,0,0,0,69.69,32.54Z"/><path d="M60.88,36.35h1.61a3,3,0,0,1,1.6.31,1.36,1.36,0,0,1,.7,1.23,1.28,1.28,0,0,1-.91,1.27v0A1.34,1.34,0,0,1,65,40.58,1.64,1.64,0,0,1,64.35,42a3.22,3.22,0,0,1-1.88.39H60.88Zm2,2.62C63.46,39,64,38.69,64,38a.84.84,0,0,0-.43-.76,2.2,2.2,0,0,0-1.2-.21h-.71V39Zm-.33,2.67a2.33,2.33,0,0,0,1.34-.26.91.91,0,0,0,.39-.78c0-.67-.53-1-1.42-1H61.67v2.06Z"/><path d="M69,36.26a3.47,3.47,0,0,1,1.84.5v.89A2.94,2.94,0,0,0,69,37a2.37,2.37,0,0,0,0,4.74,2.72,2.72,0,0,0,1.23-.28v-1.4H68.87v-.69H71v2.48a3.78,3.78,0,0,1-2.08.61A3.1,3.1,0,1,1,69,36.26Z"/><path d="M26.45,21.18a10.71,10.71,0,1,1,0,21.41,10.71,10.71,0,1,1,0-21.41Zm0,18a7,7,0,0,0,7.08-7.28,7.08,7.08,0,1,0-14.16,0A7,7,0,0,0,26.45,39.17Z"/></svg>