<svg id="Layer_1" data-name="Layer 1" xmlns="http://www.w3.org/2000/svg" viewBox="0 0 49.97 49.97">
  <defs>
    <style>
      .cls-1 {
        fill: #e8e129;
      }

      .cls-2 {
        fill: #d3c72a;
        fill-rule: evenodd;
      }
    </style>
  </defs>
  <title>Grupi</title>
  <circle class="cls-1" cx="25.02" cy="24.98" r="24.98" transform="translate(-1.93 47.91) rotate(-85.4)"/>
  <g>
    <path class="cls-2" d="M31.69,15.08c0,3.49-2.83,7.11-6.31,7.11s-6.32-3.62-6.32-7.11a6.32,6.32,0,0,1,12.63,0Z" transform="translate(-0.03)"/>
    <path class="cls-2" d="M34.31,38a2.1,2.1,0,0,0,2.09-2.1V34.44c0-4.5-3.25-11.17-11-11.17-7.48,0-11,6.42-11,11V35.9a2.1,2.1,0,0,0,2.1,2.1Z" transform="translate(-0.03)"/>
    <path class="cls-2" d="M16.66,17.21c0,2.54-2.06,5.4-4.61,5.4s-4.61-2.86-4.61-5.4a4.61,4.61,0,0,1,9.22,0Z" transform="translate(-0.03)"/>
    <path class="cls-2" d="M17.37,25.16a8.19,8.19,0,0,0-5.32-2,8.05,8.05,0,0,0-8,7.31H4a3.44,3.44,0,0,0,3.45,3.45h5.88a11.12,11.12,0,0,1,4-8.78Z" transform="translate(-0.03)"/>
    <path class="cls-2" d="M34.05,17.21c0,2.54,2.07,5.4,4.61,5.4s4.61-2.86,4.61-5.4a4.61,4.61,0,0,0-9.22,0Z" transform="translate(-0.03)"/>
    <path class="cls-2" d="M33.35,25.16a8.19,8.19,0,0,1,5.31-2,8.06,8.06,0,0,1,8,7.31h0a3.45,3.45,0,0,1-3.45,3.45H37.39a11.12,11.12,0,0,0-4-8.78Z" transform="translate(-0.03)"/>
  </g>
</svg>
