<svg id="Layer_1" data-name="Layer 1" xmlns="http://www.w3.org/2000/svg" viewBox="0 0 90 77">
  <defs>
    <style>
      .cls-1 {
        fill: #d3c72a;
        fill-rule: evenodd;
      }
    </style>
  </defs>
  <title>2-icon</title>
  <g>
    <path class="cls-1" d="M58.34,28.76c0,7.35-6,15-13.3,15s-13.3-7.62-13.3-15a13.3,13.3,0,0,1,26.6,0Z"/>
    <path class="cls-1" d="M63.85,77.05a4.42,4.42,0,0,0,4.42-4.43V69.55C68.27,60.06,61.42,46,45,46,29.29,46,21.81,59.53,21.81,69.15v3.47a4.42,4.42,0,0,0,4.42,4.43Z"/>
    <path class="cls-1" d="M26.68,33.24c0,5.36-4.35,11.38-9.71,11.38s-9.71-6-9.71-11.38a9.71,9.71,0,1,1,19.42,0Z"/>
    <path class="cls-1" d="M28.18,50A17.36,17.36,0,0,0,17,45.83,17,17,0,0,0,.08,61.23H0A7.26,7.26,0,0,0,7.27,68.5H19.66A23.4,23.4,0,0,1,28.18,50Z"/>
    <path class="cls-1" d="M63.32,33.24c0,5.36,4.35,11.38,9.72,11.38s9.71-6,9.71-11.38a9.72,9.72,0,1,0-19.43,0Z"/>
    <path class="cls-1" d="M61.83,50A17.36,17.36,0,0,1,73,45.83a17,17,0,0,1,16.89,15.4H90a7.26,7.26,0,0,1-7.26,7.27H70.34A23.42,23.42,0,0,0,61.83,50Z"/>
  </g>
</svg>
