<svg id="Layer_1" data-name="Layer 1" xmlns="http://www.w3.org/2000/svg" viewBox="0 0 49.97 49.97">
  <defs>
    <style>
      .cls-1 {
        fill: #898989;
      }

      .cls-2 {
        fill: #52dbb3;
      }
    </style>
  </defs>
  <title>Etiket</title>
  <circle class="cls-1" cx="25.02" cy="24.98" r="24.98" transform="translate(-1.93 47.91) rotate(-85.4)"/>
  <path class="cls-2" d="M16.22,35,17,31.29c-1.84,0-2.76-.77-2.76-2.2a2.1,2.1,0,0,1,.69-1.63,2.9,2.9,0,0,1,2-.63h.94L19,21H16.92a2.87,2.87,0,0,1-2-.65,2.18,2.18,0,0,1,0-3.2,3,3,0,0,1,2-.61h3L20.84,12a10.18,10.18,0,0,1,.49-1.82,2.29,2.29,0,0,1,.74-1,2.06,2.06,0,0,1,1.23-.34,2.24,2.24,0,0,1,1.63.56,2,2,0,0,1,.56,1.44c0,.13-.12.81-.34,2l-.74,3.73h4.38l1-4.59c.13-.69.26-1.25.38-1.68a2.3,2.3,0,0,1,.65-1.08,1.94,1.94,0,0,1,1.37-.44,2.24,2.24,0,0,1,1.61.54,1.92,1.92,0,0,1,.57,1.46,7.38,7.38,0,0,1,0,.82c0,.27-.08.53-.14.77s-.08.41-.1.47l-.74,3.77c1.91,0,2.87.78,2.87,2.22a2,2,0,0,1-.68,1.6,3,3,0,0,1-2,.6h-1l-1.2,5.83h2.22a2.86,2.86,0,0,1,2,.64,2.12,2.12,0,0,1,.68,1.62,2.08,2.08,0,0,1-.67,1.59,2.94,2.94,0,0,1-2,.61H30.39l-.94,4.6q-.22,1.11-.39,1.71a2.24,2.24,0,0,1-.65,1A1.94,1.94,0,0,1,27,39.1a2.18,2.18,0,0,1-1.58-.56,1.94,1.94,0,0,1-.58-1.46,9.33,9.33,0,0,1,.28-2l.74-3.74H21.46l-.94,4.6a10.42,10.42,0,0,1-.75,2.46,1.71,1.71,0,0,1-1.67.75,2.21,2.21,0,0,1-1.6-.56,1.94,1.94,0,0,1-.58-1.46A5.12,5.12,0,0,1,16,36C16.1,35.67,16.16,35.33,16.22,35ZM27.93,21H23.5l-1.18,5.83h4.47Z" transform="translate(-0.03)"/>
</svg>
