<svg class="uncategorized" id="Layer_1" data-name="Layer 1" xmlns="http://www.w3.org/2000/svg" viewBox="0 0 77 70.61">
  <title>Nekategorizirani</title>
  <g>
    <g>
      <path class="cls-1" d="M36.06,3.15V30.38a15.92,15.92,0,0,1,15.1,10.91l6.12-2L77,32.89A42.37,42.37,0,0,0,36.06,3.15Z" transform="translate(0 -3.15)"/>
      <path class="cls-1" d="M36.06,30.38v7A8.92,8.92,0,0,1,42.38,40a8.8,8.8,0,0,1,2.16,3.49l6.62-2.15A15.92,15.92,0,0,0,36.06,30.38Z" transform="translate(0 -3.15)"/>
    </g>
    <g>
      <path class="cls-2" d="M0,34.48l21,6.81a15.9,15.9,0,0,1,15.1-10.91v-22A38,38,0,0,0,0,34.48Z" transform="translate(0 -3.15)"/>
      <path class="cls-2" d="M21,41.29l6.61,2.15a8.95,8.95,0,0,1,8.49-6.11V30.38A15.9,15.9,0,0,0,21,41.29Z" transform="translate(0 -3.15)"/>
    </g>
    <g>
      <path class="cls-3" d="M3.32,46.28A32.67,32.67,0,0,0,16.78,72.73l3-4.21,6.84-9.41A15.91,15.91,0,0,1,21,41.29l-16-5.2A32.7,32.7,0,0,0,3.32,46.28Z" transform="translate(0 -3.15)"/>
      <path class="cls-3" d="M20.16,46.28a15.86,15.86,0,0,0,6.51,12.83h0l4.09-5.62a10.65,10.65,0,0,1-1-.88,9,9,0,0,1-2.16-9.17L21,41.29A15.85,15.85,0,0,0,20.16,46.28Z" transform="translate(0 -3.15)"/>
    </g>
    <g>
      <g>
        <polygon class="cls-4" points="26.68 55.96 30.76 50.34 30.76 50.34 26.68 55.96"/>
        <path class="cls-4" d="M45.44,59.06a15.88,15.88,0,0,1-18.77,0h0l-6.84,9.41a27.53,27.53,0,0,0,32.45,0l-3.06-4.2-3.78-5.21Z" transform="translate(0 -3.15)"/>
      </g>
      <path class="cls-4" d="M26.67,59.11a15.88,15.88,0,0,0,18.77,0l-4.09-5.62a9,9,0,0,1-10.59,0Z" transform="translate(0 -3.15)"/>
    </g>
  </g>
  <path class="cls-5" d="M36.3,31.79a14.69,14.69,0,1,1,0,29.38,14.69,14.69,0,1,1,0-29.38Zm0,24.69a9.64,9.64,0,0,0,9.72-10,9.72,9.72,0,1,0-19.43,0A9.63,9.63,0,0,0,36.3,56.48Z" transform="translate(0 -3.15)"/>
</svg>
