<svg id="Layer_1" data-name="Layer 1" xmlns="http://www.w3.org/2000/svg" xmlns:xlink="http://www.w3.org/1999/xlink" viewBox="0 0 714.9 213.39">
  <defs>
    <style>
      .cls-1 {
        fill: #808285;
      }

      .cls-1, .cls-2, .cls-3, .cls-4, .cls-5, .cls-6, .cls-7, .cls-9 {
        fill-rule: evenodd;
      }

      .cls-2 {
        fill: url(#linear-gradient);
      }

      .cls-3 {
        fill: url(#linear-gradient-2);
      }

      .cls-4 {
        fill: url(#linear-gradient-3);
      }

      .cls-5 {
        fill: url(#linear-gradient-4);
      }

      .cls-6 {
        fill: url(#linear-gradient-5);
      }

      .cls-7 {
        fill: url(#linear-gradient-6);
      }

      .cls-8 {
        fill: url(#linear-gradient-7);
      }

      .cls-9 {
        fill: #0062af;
      }

      .cls-10 {
        fill: #676767;
        stroke: #676867;
        stroke-miterlimit: 10;
        stroke-width: 2px;
      }
    </style>
    <linearGradient id="linear-gradient" x1="0.08" y1="82.91" x2="60.64" y2="82.91" gradientUnits="userSpaceOnUse">
      <stop offset="0" stop-color="#008641"/>
      <stop offset="1" stop-color="#009247"/>
    </linearGradient>
    <linearGradient id="linear-gradient-2" x1="141.49" y1="30.77" x2="274.93" y2="30.77" xlink:href="#linear-gradient"/>
    <linearGradient id="linear-gradient-3" x1="84.96" y1="65.33" x2="127.48" y2="65.33" xlink:href="#linear-gradient"/>
    <linearGradient id="linear-gradient-4" x1="0.08" y1="168.62" x2="234.67" y2="168.62" gradientUnits="userSpaceOnUse">
      <stop offset="0" stop-color="#ffd400"/>
      <stop offset="1" stop-color="#ffd400"/>
    </linearGradient>
    <linearGradient id="linear-gradient-5" x1="135.84" y1="-2.79" x2="133.33" y2="78.03" gradientUnits="userSpaceOnUse">
      <stop offset="0" stop-color="#d51920"/>
      <stop offset="1" stop-color="#ed1c24"/>
    </linearGradient>
    <linearGradient id="linear-gradient-6" x1="217.72" y1="104.62" x2="218.18" y2="219.24" gradientUnits="userSpaceOnUse">
      <stop offset="0" stop-color="#ed1c24"/>
      <stop offset="1" stop-color="#b51218"/>
    </linearGradient>
    <linearGradient id="linear-gradient-7" x1="64.28" y1="210.88" x2="61.86" y2="1.8" gradientUnits="userSpaceOnUse">
      <stop offset="0" stop-color="#dcddde"/>
      <stop offset="0.51" stop-color="#fff"/>
      <stop offset="1" stop-color="#dcddde"/>
    </linearGradient>
  </defs>
  <title>EU3</title>
  <path class="cls-1" d="M313.61,72.08a5.34,5.34,0,0,0,.49,2.33,4.78,4.78,0,0,0,1.4,1.76,6.52,6.52,0,0,0,2.2,1.12,11,11,0,0,0,5.8,0,6.47,6.47,0,0,0,2.19-1.12,4.75,4.75,0,0,0,1.39-1.76,5.49,5.49,0,0,0,.49-2.33,6,6,0,0,0-.27-1.82,5.25,5.25,0,0,0-.83-1.59,5.36,5.36,0,0,0-1.38-1.25,6.84,6.84,0,0,0-2-.82,11.18,11.18,0,0,0-5.06,0,6.85,6.85,0,0,0-2,.83,5.15,5.15,0,0,0-2.22,2.84A5.71,5.71,0,0,0,313.61,72.08Zm1.51,0a5,5,0,0,1,.66-2.62,4.21,4.21,0,0,1,1.87-1.66,6.93,6.93,0,0,1,3-.57,6.84,6.84,0,0,1,2.93.57,4.24,4.24,0,0,1,1.86,1.66,5.14,5.14,0,0,1,.64,2.62,4.58,4.58,0,0,1-.66,2.49,4.25,4.25,0,0,1-1.88,1.61,6.89,6.89,0,0,1-2.89.58,7,7,0,0,1-2.92-.58,4.22,4.22,0,0,1-1.89-1.61A4.67,4.67,0,0,1,315.12,72.08Zm21.59,5.4h1.49V67.39h8.29V77.48H348v-11H336.71Zm20.67,0h10.35v-.93h-8.84V72.29h7.92v-.88h-7.92v-4h8.65v-.94H357.38Zm20.74,0V73.11h3.81a10.91,10.91,0,0,0,2-.18,5.42,5.42,0,0,0,1.66-.58,3,3,0,0,0,1.11-1,3,3,0,0,0,.41-1.53,3,3,0,0,0-.58-1.88,3.29,3.29,0,0,0-1.63-1.07,8,8,0,0,0-2.5-.34h-5.81v11Zm0-10H382a7.21,7.21,0,0,1,2.13.25,2.07,2.07,0,0,1,1.14.79,2.22,2.22,0,0,1,.34,1.33,2,2,0,0,1-.31,1.18,1.89,1.89,0,0,1-.84.71,4.55,4.55,0,0,1-1.26.35,12.12,12.12,0,0,1-1.53.09h-3.57Zm16.09,10h1.6l1.8-3.46h6.66l1.8,3.46h1.6l-5.93-11h-1.6Zm3.85-4.36,2.86-5.58,2.93,5.58Zm21.38,4.36H421v-10h4.86v-1H414.5v1h4.94Zm16.46,0,8.72-9.62v9.62h1.51v-11h-1.84l-8.65,9.73V66.51h-1.48v11Zm25.77,0a11.47,11.47,0,0,0,2.34-.22,5.08,5.08,0,0,0,1.5-.55,2.84,2.84,0,0,0,.84-.75,2.25,2.25,0,0,0,.37-.81,3.29,3.29,0,0,0,.08-.72,2.46,2.46,0,0,0-.72-1.84,4,4,0,0,0-2.23-.9,3.87,3.87,0,0,0,1.84-1,1.94,1.94,0,0,0,.57-1.41,2.66,2.66,0,0,0-.36-1.38,2.42,2.42,0,0,0-1-.86,4.79,4.79,0,0,0-1.47-.44,11.85,11.85,0,0,0-1.85-.13h-6.07v11ZM457,72.22h4.61a7.91,7.91,0,0,1,2.13.22,2.18,2.18,0,0,1,1.2.71,1.93,1.93,0,0,1,.38,1.26,1.86,1.86,0,0,1-.38,1.23,2.14,2.14,0,0,1-1.19.69,8.37,8.37,0,0,1-2.14.22H457Zm0-4.78h4.3a11.57,11.57,0,0,1,1.34,0,4.31,4.31,0,0,1,1.11.26,1.79,1.79,0,0,1,.77.57,1.84,1.84,0,0,1,.28,1,1.93,1.93,0,0,1-.26,1,1.83,1.83,0,0,1-.73.61,3.77,3.77,0,0,1-1.09.32,9.75,9.75,0,0,1-1.37.09H457Zm20.46,10V72.11h8.84v5.37h1.46v-11h-1.46v4.73H477.5V66.51H476v11Zm18.07,0h1.61L499,74h6.66l1.8,3.46H509l-5.93-11H501.5Zm3.85-4.36,2.86-5.58,2.93,5.58Zm24.05,4.36H525V67.39h8.29V77.48h1.51v-11H523.47Zm22.16,0V73.11h3.8a10.91,10.91,0,0,0,2-.18,5.33,5.33,0,0,0,1.66-.58,3,3,0,0,0,1.12-1,2.85,2.85,0,0,0,.4-1.53,3,3,0,0,0-.58-1.88,3.26,3.26,0,0,0-1.62-1.07,8,8,0,0,0-2.5-.34h-5.81v11Zm0-10h3.9a7.21,7.21,0,0,1,2.13.25,2.11,2.11,0,0,1,1.14.79,2.37,2.37,0,0,1,.34,1.33,2.11,2.11,0,0,1-.31,1.18,2,2,0,0,1-.85.71,4.47,4.47,0,0,1-1.25.35,12.35,12.35,0,0,1-1.53.09h-3.57Zm17,4.61a5.64,5.64,0,0,0,.49,2.33,4.91,4.91,0,0,0,1.41,1.76,6.43,6.43,0,0,0,2.2,1.12,10.94,10.94,0,0,0,5.79,0,6.47,6.47,0,0,0,2.19-1.12,4.75,4.75,0,0,0,1.39-1.76,5.34,5.34,0,0,0,.49-2.33,6,6,0,0,0-.27-1.82,5,5,0,0,0-.83-1.59,5.36,5.36,0,0,0-1.38-1.25,6.9,6.9,0,0,0-2-.82,11.22,11.22,0,0,0-5.07,0,6.85,6.85,0,0,0-2,.83,5.42,5.42,0,0,0-1.39,1.25,5.26,5.26,0,0,0-.83,1.59A5.71,5.71,0,0,0,562.61,72.08Zm1.51,0a5,5,0,0,1,.66-2.62,4.27,4.27,0,0,1,1.87-1.66,7,7,0,0,1,3-.57,6.88,6.88,0,0,1,2.94.57,4.27,4.27,0,0,1,1.85,1.66,5.14,5.14,0,0,1,.65,2.62,4.67,4.67,0,0,1-.67,2.49,4.25,4.25,0,0,1-1.88,1.61,6.89,6.89,0,0,1-2.89.58,7,7,0,0,1-2.92-.58,4.22,4.22,0,0,1-1.89-1.61A4.67,4.67,0,0,1,564.12,72.08Zm23.11-4.61h7.37v-1h-8.88v11h1.51Zm17.24,10V73.11h3.8a10.94,10.94,0,0,0,2.05-.18,5.42,5.42,0,0,0,1.66-.58,3,3,0,0,0,1.11-1,2.85,2.85,0,0,0,.4-1.53,3,3,0,0,0-.57-1.88,3.34,3.34,0,0,0-1.63-1.07,8,8,0,0,0-2.5-.34H603v11Zm0-10h3.9a7.21,7.21,0,0,1,2.13.25,2.11,2.11,0,0,1,1.14.79,2.22,2.22,0,0,1,.34,1.33,2,2,0,0,1-.31,1.18,1.89,1.89,0,0,1-.84.71,4.55,4.55,0,0,1-1.26.35,12.12,12.12,0,0,1-1.53.09h-3.57Zm16.09,10h1.6L624,74h6.66l1.8,3.46H634l-5.93-11h-1.6Zm3.85-4.36,2.86-5.58,2.93,5.58Zm19.37,4.36V67.64L649,77.48h1.44l5.22-9.84v9.84h1.49v-11h-2.38l-5.06,9.68-5.05-9.68h-2.39v11Zm21.21,0h1.61L668.39,74h6.66l1.8,3.46h1.61l-5.93-11h-1.61Zm3.85-4.36,2.86-5.58,2.93,5.58Z"/>
  <path class="cls-2" d="M59.48,90.17q.81-13,1.16-26.11Q30.71,71.53.08,76.4v25.35Q30.07,97.19,59.48,90.17Z"/>
  <path class="cls-3" d="M141.49,38.56c2.94,7.83,6.17,15.55,9.62,23.17A722.77,722.77,0,0,0,274.93-.19H225.29A699.77,699.77,0,0,1,141.49,38.56Z"/>
  <path class="cls-4" d="M127.48,70.32Q106.44,77.6,85,83.57q.67-13.11.88-26.31Q102,52.57,117.92,47.1,122.33,58.86,127.48,70.32Z"/>
  <path class="cls-5" d="M.08,123.9v25.31q26.15,3.72,51.73,9.63c1.34-8.27,2.5-16.57,3.55-24.9Q28,127.71.08,123.9Zm112.68,25.89c-10.87-3.58-21.85-6.77-32.9-9.76q-1.64,12.54-3.67,25,11,3,21.94,6.5C102.76,164.1,107.67,156.88,112.76,149.79Zm121.91,63.56H198.41a608.21,608.21,0,0,0-75.79-33.52q7-10.94,14.85-21.34a632.41,632.41,0,0,1,73.86,33.36Q222.55,203,234.67,213.35Z"/>
  <path class="cls-6" d="M151.11,61.73c-3.45-7.62-6.68-15.34-9.62-23.17l-.22-.6-.22-.59-.22-.6-.22-.59-.22-.59h0l-.22-.59-.21-.6-.22-.59-.21-.6-.22-.6-.21-.6-.21-.59h0l-.21-.6h0l-.21-.6-.21-.6h0l-.21-.6h0l-.2-.6-.21-.6h0l-.2-.6-.2-.6L137,26h0l-.2-.61-.2-.6h0l-.2-.6h0l-.19-.61h0L136,23h0l-.2-.6h0l-.19-.61h0l-.2-.6h0l-.19-.6h0l-.19-.6h0l-.19-.61h0l-.19-.6h0l-.19-.61h0l-.19-.6h0l-.19-.6h0l-.18-.61h0l-.19-.61h0l-.18-.61h0l-.18-.6h0l-.19-.61h0l-.18-.61h0l-.18-.61h0l-.18-.61h0l-.17-.61h0l-.18-.61h0l-.18-.61h0L132,9.63h0L131.79,9h0l-.17-.62h0l-.17-.61h0l-.17-.61h0l-.17-.61h0L130.93,6h0l-.17-.61h0l-.17-.61h0l-.16-.62h0l-.17-.61h0l-.16-.61h0l-.16-.61h0l-.16-.61h0L129.61,1h0l-.16-.62h0l-.16-.61H103.44l.18.75h0l.19.75h0l.18.74h0l.19.75h0l.18.75h0l.19.75h0l.19.75h0l.2.75h0l.19.75h0l.19.75h0l.2.75h0l.2.75h0l.2.75h0l.2.75h0l.2.74h0l.2.75h0l.21.75h0l.2.74h0l.21.75h0l.21.74h0l.21.75h0l.21.74h0L108,17h0l.21.74h0l.21.74h0l.22.74h0l.22.74h0l.22.74h0l.22.74h0l.23.74h0l.22.74h0l.23.74h0l.22.74h0l.23.74h0l.23.73h0l.23.73h0l.23.74h0l.24.74h0l.23.73h0l.24.74.24.73h0l.24.74h0l.24.73h0l.24.73.25.74h0l.24.73.25.73h0l.25.73.25.74h0l.25.73h0l.25.73.25.73.26.73.25.72h0l.26.73.26.73h0l.26.73.26.72.27.73h0l.26.72.27.73.26.72.27.72.27.73q4.41,11.76,9.56,23.22a402.84,402.84,0,0,0,19.43,37.91q8.88-9.45,18.37-18.34Q157.6,76.11,151.11,61.73Z"/>
  <path class="cls-7" d="M178.54,111.86c-6.18,6-12.11,12.14-17.86,18.48a403.91,403.91,0,0,0,50.65,61.51q11.22,11.18,23.34,21.5H275.3A378.47,378.47,0,0,1,178.54,111.86Z"/>
  <path class="cls-8" d="M59.36-.19l0,.71h0l.05.72h0l0,.71h0l0,.71h0l0,.71h0l0,.71h0l.05.71h0l0,.71h0l0,.72h0l0,.71h0l0,.72h0l0,.71h0l0,.72h0l0,.71h0l0,.72h0l0,.71h0l0,.71h0l0,.71h0l0,.72h0l0,.71h0l0,.71h0l0,.71h0l0,.71h0l0,.72h0l0,.71h0l0,.72h0l0,.71h0l0,.72h0l0,.72h0l0,.71h0l0,.72h0l0,.71h0l0,.71h0l0,.72h0l0,.71,0,.72h0l0,.71h0l0,.72h0l0,.72h0l0,.71,0,.72,0,.72h0v.71h0l0,.72h0l0,.72h0v1.43h0l0,.72h0v2.15h0v1.43h0v1.43h0v1.43h0v5c0,6.15-.1,12.29-.26,18.43q-.33,13.08-1.16,26.11-1.38,22-4.12,43.77c-1,8.33-2.21,16.63-3.55,24.9q-4.47,27.49-11.14,54.51H66.48q5.68-24,9.71-48.34,2.06-12.45,3.67-25,3.63-28,5.1-56.46.67-13.11.88-26.31c.06-3.87.13-7.75.13-11.63V42.76h0v-4.3h0V37h0V34.87h0v-.71h0V32.72h0l0-.71h0v-.72h0l0-.71h0v-.71l0-.72,0-.72,0-.71h0l0-.72h0l0-.71h0l0-.71,0-.71h0l0-.71h0l0-.72h0l0-.71h0l0-.72h0l0-.72h0l0-.71h0l0-.72h0l0-.71h0l0-.71h0l0-.72h0l0-.71h0l0-.72h0l0-.71h0l0-.72h0l0-.71h0l0-.72h0l0-.71h0l0-.71h0l0-.71h0l0-.71h0l0-.72h0l0-.71h0l0-.71h0l0-.71h0l0-.71h0l0-.71h0l0-.71h0l0-.71h0l0-.71h0l0-.71h0l0-.71h0l0-.71h0l-.05-.71h0l0-.72h0l0-.71Z"/>
  <path class="cls-9" d="M165.28,89.89q-9.5,8.88-18.37,18.34a405.18,405.18,0,0,0-34.15,41.56c-5.09,7.09-10,14.31-14.63,21.72a405.68,405.68,0,0,0-22.68,41.84h27.87a376,376,0,0,1,19.3-33.52q7-10.94,14.85-21.34,10.92-14.61,23.21-28.15c5.75-6.34,11.68-12.53,17.86-18.48a379,379,0,0,1,63.35-49.29v-29A403,403,0,0,0,165.28,89.89Z"/>
  <g>
    <path class="cls-10" d="M328.75,91.06v21.11l2.07.07-.21,8.09h-2.38l-.21-5.67H313.14l-.21,5.67h-2.38l-.21-8.09,1.79-.07a27.92,27.92,0,0,0,2.31-5.18,35.21,35.21,0,0,0,1.12-9.94v-6Zm-10.36,7a32.31,32.31,0,0,1-1.19,9.63,23.13,23.13,0,0,1-1.92,4.48h10.43V93.58h-7.32Z"/>
    <path class="cls-10" d="M358.22,102.62c0,8.12-4.93,12.42-11,12.42-6.23,0-10.61-4.83-10.61-12,0-7.49,4.66-12.39,11-12.39S358.22,95.61,358.22,102.62Zm-18.3.38c0,5,2.73,9.56,7.52,9.56s7.56-4.45,7.56-9.81c0-4.69-2.45-9.59-7.52-9.59S339.92,97.82,339.92,103Z"/>
    <path class="cls-10" d="M379.12,91.06v2.56H368.93V100a25.4,25.4,0,0,1,2.91-.18,11.26,11.26,0,0,1,6.09,1.57,6.52,6.52,0,0,1,3,5.78,6.94,6.94,0,0,1-2,5.11c-1.93,1.89-5.11,2.63-8.33,2.63a35.67,35.67,0,0,1-4.76-.28V91.06Zm-10.19,21.25a13.27,13.27,0,0,0,2.56.18,6.94,6.94,0,0,0,5-1.82,4.88,4.88,0,0,0,1.29-3.47,4.43,4.43,0,0,0-1.92-3.85,7.89,7.89,0,0,0-4.48-1.19c-.7,0-1.65.07-2.42.14Z"/>
    <path class="cls-10" d="M388.6,91.34a36,36,0,0,1,5.85-.45c3,0,5.21.7,6.61,2a6.32,6.32,0,0,1,2.07,4.93,7,7,0,0,1-1.82,5,9.8,9.8,0,0,1-7.21,2.59,10.76,10.76,0,0,1-2.45-.21v9.45h-3Zm3,11.38a10.43,10.43,0,0,0,2.52.24c3.67,0,5.91-1.78,5.91-5,0-3.11-2.2-4.62-5.56-4.62a12.67,12.67,0,0,0-2.87.25Z"/>
    <path class="cls-10" d="M430.81,102.62c0,8.12-4.93,12.42-10.95,12.42-6.23,0-10.61-4.83-10.61-12,0-7.49,4.66-12.39,11-12.39S430.81,95.61,430.81,102.62Zm-18.3.38c0,5,2.73,9.56,7.52,9.56s7.56-4.45,7.56-9.81c0-4.69-2.45-9.59-7.52-9.59S412.51,97.82,412.51,103Z"/>
    <path class="cls-10" d="M450.48,91.06l4.69,10c.6,1.4,1.16,2.77,1.72,4.17H457c.42-1.23.87-2.6,1.47-4.28l3.67-9.94h3.22l-4.93,12.11c-1.3,3.16-2.77,6.76-4.41,9a6.68,6.68,0,0,1-5.36,2.9,5.2,5.2,0,0,1-1.71-.21l.31-2.48a4.38,4.38,0,0,0,1.12.1c2.45,0,3.89-2.38,4.62-4.06a1.4,1.4,0,0,0-.1-1.43L447,91.06Z"/>
    <path class="cls-10" d="M488.6,91.06v23.6h-3.05v-21H474.6v21h-3.05V91.06Z"/>
    <path class="cls-10" d="M497.63,91.34a35.87,35.87,0,0,1,5.84-.45c3,0,5.22.7,6.62,2a6.34,6.34,0,0,1,2.06,4.93,7,7,0,0,1-1.82,5,9.79,9.79,0,0,1-7.21,2.59,10.76,10.76,0,0,1-2.45-.21v9.45h-3Zm3,11.38a10.54,10.54,0,0,0,2.52.24c3.68,0,5.92-1.78,5.92-5,0-3.11-2.21-4.62-5.57-4.62a12.73,12.73,0,0,0-2.87.25Z"/>
    <path class="cls-10" d="M520.83,107.24l-2.45,7.42h-3.15l8-23.6h3.67l8.05,23.6h-3.25l-2.52-7.42Zm7.74-2.38-2.31-6.8c-.53-1.54-.88-2.94-1.23-4.3H525c-.35,1.4-.73,2.83-1.19,4.27l-2.31,6.83Z"/>
    <path class="cls-10" d="M572.46,94.24,566,114.66h-3.15l8-23.6h3.68l8.05,23.6h-3.26Z"/>
    <path class="cls-10" d="M542.15,91.38a29.49,29.49,0,0,1,5.56-.49c3,0,5,.52,6.48,1.71a5,5,0,0,1,2,4.17,5.61,5.61,0,0,1-4,5.18V102a6.08,6.08,0,0,1,4.86,5.92,6.34,6.34,0,0,1-2,4.72c-1.65,1.51-4.31,2.21-8.16,2.21a35.45,35.45,0,0,1-4.72-.28Zm3,9.66H548c3.22,0,5.11-1.68,5.11-4,0-2.76-2.1-3.85-5.18-3.85a13.5,13.5,0,0,0-2.7.21Zm0,11.31a17,17,0,0,0,2.56.14c3.15,0,6-1.16,6-4.59,0-3.22-2.76-4.55-6.09-4.55h-2.52Z"/>
    <path class="cls-10" d="M601.65,103.59h-9.17v8.51H602.7v2.56H589.43V91.06h12.74v2.56h-9.69v7.46h9.17Z"/>
    <path class="cls-10" d="M613.41,91.06v9.87h11.41V91.06h3.08v23.6h-3.08V103.59H613.41v11.07h-3V91.06Z"/>
    <path class="cls-10" d="M639.76,91.06V101c0,3.75-.07,6.83-.28,10l.07,0c1.19-2.45,2.66-5,4.38-7.81l7.63-12.15h3v23.6h-2.87v-10c0-3.82,0-6.62.28-9.59l-.1,0a73.3,73.3,0,0,1-4.38,8l-7.38,11.73h-3.26V91.06Z"/>
    <path class="cls-10" d="M675.85,103.59h-9.17v8.51H676.9v2.56H663.63V91.06h12.74v2.56h-9.69v7.46h9.17Z"/>
  </g>
</svg>
