<svg id="Layer_1" data-name="Layer 1" xmlns="http://www.w3.org/2000/svg" viewBox="0 0 30 30"><defs><style>.cls-1{fill:#108f9e;}.cls-2{fill:none;stroke:#108f9e;stroke-miterlimit:10;}</style></defs><title>user-01</title><path class="cls-1" d="M11.3,12.27c.89,2.1,2.58,3.25,3.7,3.25s2.65-1.11,3.55-3.19a9.32,9.32,0,0,0,.54-1.78,6.91,6.91,0,0,0,.23-2,4.19,4.19,0,0,0-4.32-4,4.19,4.19,0,0,0-4.32,4,10.18,10.18,0,0,0,.1,1.47A8.83,8.83,0,0,0,11.3,12.27Z"/><path class="cls-1" d="M22.63,18.42c-.86-.93-3.29-.7-4.49-1.33-.53,1-.54,2.64-1.42,2.64H16.6c-1.33-.2-.67-3.6-1.6-3.6s-.27,3.4-1.6,3.6h-.12c-.88,0-.89-1.64-1.42-2.64-1.2.63-3.63.4-4.49,1.33-.47.5-.71,3.59-.71,5H23.34C23.34,22,23.1,18.92,22.63,18.42Z"/><circle class="cls-2" cx="15" cy="15" r="14.26"/></svg>